#!OML:ASF H:\ManfredETheater\Project 1\Capture day 1\Session 1\subject.ASF
:FULLY-SPECIFIED
:DEGREES
214
root 0.911787 17.7727 -16.1829 -171.509 -3.64379 179.056
lowerback 1.34817 -1.04587 -0.871944
upperback -4.24134 -1.51908 2.28441
thorax -5.05643 -0.746928 2.9494
lowerneck -17.154 -1.91598 -2.3174
upperneck 16.7118 -1.86802 -0.0573532
head 8.0245 -0.98388 0.148086
rclavicle 8.17502e-015 4.21423e-014
rhumerus -35.7064 -8.93466 -79.2137
rradius 33.8981
rwrist 2.30634
rhand -20.9011 -9.61582
rfingers 7.12502
rthumb 5.46987 -39.5252
lclavicle 8.17502e-015 4.21423e-014
lhumerus -39.0753 6.70528 87.5094
lradius 35.629
lwrist -10.8293
lhand -10.2173 7.12065
lfingers 7.12502
lthumb 15.7744 36.4979
rfemur -14.7089 1.00252 23.4505
rtibia 32.6291
rfoot -20.7832 -11.753
rtoes -8.00738
lfemur -19.4495 -6.75346 -20.5319
ltibia 39.4596
lfoot -24.5418 -0.71972
ltoes 12.367
215
root 0.905351 17.7698 -16.1863 -171.435 -3.61566 179.1
lowerback 1.38782 -1.02167 -0.833813
upperback -4.23611 -1.48446 2.28942
thorax -5.07627 -0.730755 2.9323
lowerneck -17.1433 -1.91414 -2.32854
upperneck 16.6268 -1.86878 -0.0468954
head 7.99446 -0.984999 0.153522
rclavicle -2.98301e-014 8.74653e-015
rhumerus -35.658 -8.87111 -79.2707
rradius 33.9279
rwrist 2.27828
rhand -20.8774 -9.64741
rfingers 7.12502
rthumb 5.49274 -39.5562
lclavicle -2.98301e-014 8.74653e-015
lhumerus -39.0883 6.79844 87.4579
lradius 35.468
lwrist -10.7697
lhand -10.1542 7.19054
lfingers 7.12502
lthumb 15.8352 36.563
rfemur -14.7866 0.945886 23.4663
rtibia 32.6494
rfoot -20.8347 -11.6685
rtoes -8.12392
lfemur -19.5166 -6.74848 -20.5027
ltibia 39.4842
lfoot -24.6155 -0.666396
ltoes 12.391
216
root 0.8989 17.7668 -16.1899 -171.362 -3.58314 179.141
lowerback 1.42957 -0.995165 -0.802734
upperback -4.22893 -1.44683 2.29544
thorax -5.09521 -0.712733 2.91999
lowerneck -17.1354 -1.91426 -2.33897
upperneck 16.541 -1.87124 -0.0419492
head 7.96462 -0.987437 0.156783
rclavicle -1.04113e-014 -1.35174e-014
rhumerus -35.6128 -8.80666 -79.3282
rradius 33.9568
rwrist 2.24606
rhand -20.8561 -9.66989
rfingers 7.12502
rthumb 5.5133 -39.5782
lclavicle -1.04113e-014 -1.35174e-014
lhumerus -39.0972 6.88572 87.4111
lradius 35.3148
lwrist -10.7163
lhand -10.0941 7.26056
lfingers 7.12502
lthumb 15.893 36.6284
rfemur -14.8623 0.894271 23.4792
rtibia 32.6694
rfoot -20.8885 -11.5931
rtoes -8.25245
lfemur -19.5858 -6.74075 -20.478
ltibia 39.5133
lfoot -24.686 -0.61216
ltoes 12.4102
217
root 0.892462 17.7638 -16.1938 -171.29 -3.54862 179.177
lowerback 1.47397 -0.967854 -0.779618
upperback -4.2193 -1.40816 2.30059
thorax -5.11299 -0.693802 2.91117
lowerneck -17.126 -1.9153 -2.34859
upperneck 16.4504 -1.87514 -0.0380069
head 7.9329 -0.990635 0.159433
rclavicle -2.36057e-015 -1.27222e-014
rhumerus -35.5682 -8.74295 -79.3891
rradius 33.9827
rwrist 2.20979
rhand -20.8392 -9.69222
rfingers 7.12502
rthumb 5.52963 -39.6001
lclavicle -2.36057e-015 -1.27222e-014
lhumerus -39.1027 6.96925 87.365
lradius 35.1714
lwrist -10.6706
lhand -10.0436 7.32319
lfingers 7.12502
lthumb 15.9417 36.6871
rfemur -14.9344 0.84777 23.487
rtibia 32.6884
rfoot -20.9474 -11.5282
rtoes -8.38793
lfemur -19.657 -6.72994 -20.4594
ltibia 39.547
lfoot -24.7542 -0.560952
ltoes 12.4235
218
root 0.886093 17.7607 -16.1978 -171.218 -3.51211 179.209
lowerback 1.52211 -0.938818 -0.76233
upperback -4.20659 -1.36712 2.30468
thorax -5.12969 -0.67337 2.90437
lowerneck -17.1228 -1.75862 -2.40503
upperneck 16.3613 -1.92604 -3.11036e-006
head 7.90312 -1.12176 0.160831
rclavicle 1.52319e-014 4.77083e-015
rhumerus -35.5246 -8.68347 -79.4529
rradius 34.0067
rwrist 2.17249
rhand -20.8306 -9.69787
rfingers 7.12502
rthumb 5.53787 -39.6055
lclavicle 1.52319e-014 4.77083e-015
lhumerus -39.103 7.04969 87.3194
lradius 35.0365
lwrist -10.6377
lhand -10.0005 7.37861
lfingers 7.12502
lthumb 15.9831 36.7392
rfemur -15.0026 0.808822 23.4917
rtibia 32.7056
rfoot -21.0103 -11.4768
rtoes -8.54053
lfemur -19.7314 -6.71869 -20.4447
ltibia 39.5855
lfoot -24.8186 -0.51249
ltoes 12.437
219
root 0.87971 17.7574 -16.2022 -171.147 -3.47429 179.235
lowerback 1.57066 -0.908933 -0.75233
upperback -4.19196 -1.32507 2.30682
thorax -5.14455 -0.652113 2.89946
lowerneck -17.1165 -1.76657 -2.41703
upperneck 16.2696 -1.93197 0.0107843
head 7.87181 -1.12204 0.166401
rclavicle 5.70264e-015 -2.46493e-014
rhumerus -35.4846 -8.62467 -79.5205
rradius 34.0303
rwrist 2.13005
rhand -20.8267 -9.70254
rfingers 7.12502
rthumb 5.54165 -39.6101
lclavicle 5.70264e-015 -2.46493e-014
lhumerus -39.1041 7.1302 87.2725
lradius 34.9146
lwrist -10.6192
lhand -9.96408 7.43107
lfingers 7.12502
lthumb 16.0182 36.7889
rfemur -15.067 0.773117 23.4895
rtibia 32.7216
rfoot -21.0781 -11.4349
rtoes -8.71434
lfemur -19.8078 -6.70847 -20.4371
ltibia 39.628
lfoot -24.8833 -0.465993
ltoes 12.446
220
root 0.873192 17.7542 -16.207 -171.078 -3.43362 179.255
lowerback 1.62068 -0.878306 -0.747048
upperback -4.17512 -1.28206 2.30666
thorax -5.15792 -0.630147 2.89469
lowerneck -17.1136 -1.77411 -2.42475
upperneck 16.1798 -1.93798 0.0195454
head 7.84168 -1.12233 0.170547
rclavicle -1.38777e-014 -2.38542e-015
rhumerus -35.4466 -8.56678 -79.5935
rradius 34.0511
rwrist 2.089
rhand -20.8275 -9.70451
rfingers 7.12502
rthumb 5.54095 -39.6121
lclavicle -1.38777e-014 -2.38542e-015
lhumerus -39.1082 7.2096 87.223
lradius 34.8083
lwrist -10.611
lhand -9.93287 7.48532
lfingers 7.12502
lthumb 16.0483 36.8407
rfemur -15.1261 0.736163 23.4809
rtibia 32.7367
rfoot -21.1498 -11.398
rtoes -8.91844
lfemur -19.8856 -6.70592 -20.435
ltibia 39.674
lfoot -24.948 -0.427861
ltoes 12.5155
221
root 0.866514 17.751 -16.2123 -171.008 -3.39319 179.271
lowerback 1.67276 -0.847361 -0.744703
upperback -4.15941 -1.23877 2.30409
thorax -5.17367 -0.607921 2.88907
lowerneck -17.1045 -1.78196 -2.4393
upperneck 16.0894 -1.94492 0.0381337
head 7.81048 -1.12257 0.178997
rclavicle -1.06598e-014 -4.77083e-015
rhumerus -35.4199 -8.50729 -79.6706
rradius 34.0751
rwrist 2.04349
rhand -20.832 -9.70802
rfingers 7.12502
rthumb 5.53654 -39.6157
lclavicle -1.06598e-014 -4.77083e-015
lhumerus -39.1209 7.29033 87.1716
lradius 34.7193
lwrist -10.6095
lhand -9.91052 7.53176
lfingers 7.12502
lthumb 16.0698 36.8854
rfemur -15.1847 0.696808 23.4652
rtibia 32.7529
rfoot -21.2244 -11.3637
rtoes -9.13908
lfemur -19.9669 -6.70798 -20.4384
ltibia 39.7223
lfoot -25.0135 -0.396701
ltoes 12.6178
222
root 0.859658 17.7478 -16.2181 -170.937 -3.34896 179.278
lowerback 1.72432 -0.815659 -0.747389
upperback -4.14136 -1.19456 2.29803
thorax -5.18667 -0.585029 2.88245
lowerneck -17.1022 -1.79069 -2.45217
upperneck 16.0023 -1.95347 0.0577082
head 7.7816 -1.12339 0.187229
rclavicle -8.22472e-015 -2.78299e-014
rhumerus -35.3928 -8.44906 -79.7544
rradius 34.0972
rwrist 1.99621
rhand -20.8383 -9.70763
rfingers 7.12502
rthumb 5.53043 -39.6155
lclavicle -8.22472e-015 -2.78299e-014
lhumerus -39.1365 7.36717 87.1193
lradius 34.6513
lwrist -10.6009
lhand -9.89032 7.59079
lfingers 7.12502
lthumb 16.0893 36.9429
rfemur -15.244 0.653262 23.4402
rtibia 32.7718
rfoot -21.2993 -11.3302
rtoes -9.38914
lfemur -20.0498 -6.7161 -20.4499
ltibia 39.772
lfoot -25.0826 -0.370737
ltoes 12.7602
